<svg xmlns="http://www.w3.org/2000/svg" viewBox="0 0 480 270" width="480" height="270" role="img" aria-label="Illustration VTC : berline avec enseigne en ville">
  <defs>
    <linearGradient id="vtcBg" x1="0" y1="0" x2="0" y2="1">
      <stop offset="0" stop-color="#1e3a8a"/>
      <stop offset="0.5" stop-color="#4f46e5"/>
      <stop offset="1" stop-color="#818cf8"/>
    </linearGradient>
  </defs>
  <rect width="480" height="270" fill="url(#vtcBg)"/>
  <!-- skyline -->
  <g fill="#ffffff" opacity="0.14">
    <rect x="30" y="86" width="34" height="98"/>
    <rect x="72" y="58" width="40" height="126"/>
    <rect x="120" y="100" width="30" height="84"/>
    <rect x="300" y="74" width="38" height="110"/>
    <rect x="346" y="52" width="44" height="132"/>
    <rect x="398" y="92" width="34" height="92"/>
  </g>
  <g fill="#ffffff" opacity="0.22">
    <rect x="80" y="70" width="7" height="7"/><rect x="94" y="70" width="7" height="7"/>
    <rect x="80" y="88" width="7" height="7"/><rect x="94" y="88" width="7" height="7"/>
    <rect x="356" y="66" width="7" height="7"/><rect x="372" y="66" width="7" height="7"/>
    <rect x="356" y="86" width="7" height="7"/><rect x="372" y="86" width="7" height="7"/>
  </g>
  <path d="M0 188 L480 188 L480 270 L0 270 Z" fill="#0f1b46"/>
  <rect x="0" y="184" width="480" height="6" fill="#fbbf24" opacity="0.5"/>
  <!-- berline -->
  <g transform="translate(140 92)">
    <ellipse cx="100" cy="98" rx="104" ry="14" fill="#0a1230" opacity="0.4"/>
    <path d="M8 70 C8 56 22 50 38 48 L62 24 C70 16 80 12 92 12 L150 12 C164 12 176 18 184 30 L196 50 C206 54 210 60 210 70 L210 84 C210 90 206 94 200 94 L14 94 C10 94 8 90 8 84 Z" fill="#0f172a"/>
    <path d="M66 28 C72 22 80 20 92 20 L114 20 L114 48 L54 48 Z" fill="#93c5fd"/>
    <path d="M122 20 L146 20 C156 20 164 24 170 32 L182 48 L122 48 Z" fill="#93c5fd"/>
    <!-- enseigne toit -->
    <rect x="92" y="0" width="44" height="14" rx="3" fill="#fbbf24"/>
    <text x="114" y="11" font-family="Arial, sans-serif" font-size="9" font-weight="700" fill="#1e293b" text-anchor="middle">VTC</text>
    <rect x="186" y="62" width="16" height="10" rx="3" fill="#fde68a"/>
    <circle cx="62" cy="94" r="21" fill="#111827"/><circle cx="62" cy="94" r="9" fill="#cbd5e1"/>
    <circle cx="160" cy="94" r="21" fill="#111827"/><circle cx="160" cy="94" r="9" fill="#cbd5e1"/>
  </g>
</svg>
